<?xml version="1.0" standalone="no"?>
<!DOCTYPE svg PUBLIC "-//W3C//DTD SVG 20010904//EN"
 "http://www.w3.org/TR/2001/REC-SVG-20010904/DTD/svg10.dtd">
<svg version="1.0" xmlns="http://www.w3.org/2000/svg"
 width="600.000000pt" height="250.000000pt" viewBox="0 0 600.000000 250.000000"
 preserveAspectRatio="xMidYMid meet">

<g transform="translate(0.000000,250.000000) scale(0.100000,-0.100000)"
fill="#000000" stroke="none">
<path d="M938 1894 c-125 -30 -248 -113 -321 -216 -68 -97 -99 -185 -105 -298
-8 -171 44 -308 162 -425 114 -113 237 -165 393 -165 148 0 269 49 382 155
115 109 171 242 171 405 -1 106 -12 155 -57 249 -108 227 -380 355 -625 295z
m211 -55 c91 -15 180 -60 250 -125 55 -51 111 -128 111 -153 0 -8 -64 -11
-200 -11 l-200 0 0 -175 c0 -225 -8 -245 -101 -245 -26 0 -46 7 -59 20 -19 19
-20 33 -20 210 l0 190 -155 0 c-104 0 -155 4 -155 11 0 6 16 35 36 65 70 105
183 182 308 209 78 17 104 18 185 4z m-319 -516 c0 -174 8 -211 56 -252 33
-30 38 -31 129 -31 87 0 96 2 126 27 41 35 59 79 59 148 l0 55 115 0 115 0 0
40 0 40 -115 0 -115 0 0 60 0 60 174 0 c172 0 174 0 180 -22 11 -43 6 -174 -9
-233 -34 -128 -136 -253 -255 -312 -81 -40 -136 -52 -225 -53 -280 0 -509 241
-493 521 3 41 8 81 12 87 5 8 45 12 127 12 l119 0 0 -147z"/>
</g>
</svg>
