<?xml version="1.0" standalone="no"?>
<!DOCTYPE svg PUBLIC "-//W3C//DTD SVG 20010904//EN"
 "http://www.w3.org/TR/2001/REC-SVG-20010904/DTD/svg10.dtd">
<svg version="1.0" xmlns="http://www.w3.org/2000/svg"
 width="1280.000000pt" height="1280.000000pt" viewBox="0 0 1280.000000 1280.000000"
 preserveAspectRatio="xMidYMid meet">
<metadata>
Created by potrace 1.15, written by Peter Selinger 2001-2017
</metadata>
<g transform="translate(0.000000,1280.000000) scale(0.100000,-0.100000)"
fill="#000000" stroke="none">
<path d="M5931 11900 c-550 -38 -1040 -177 -1443 -407 -123 -71 -227 -142
-370 -253 -118 -92 -687 -663 -792 -795 -505 -636 -820 -1485 -970 -2615 -88
-660 -115 -1479 -75 -2240 87 -1677 489 -2883 1203 -3619 424 -436 965 -726
1585 -850 586 -118 1278 -104 1835 36 583 146 1036 409 1508 875 80 79 185
188 233 243 645 735 1016 1762 1144 3170 37 399 45 619 45 1135 0 491 -8 716
-40 1095 -157 1888 -732 3147 -1719 3762 -390 243 -845 390 -1383 449 -168 18
-593 26 -761 14z m239 -1965 c266 -50 429 -134 595 -307 331 -342 537 -944
635 -1853 92 -862 90 -2183 -6 -3025 -75 -664 -213 -1162 -414 -1495 -50 -83
-50 -83 -143 -129 -197 -97 -348 -130 -602 -130 -245 0 -408 32 -579 114 -129
62 -203 116 -316 229 -490 493 -700 1463 -700 3231 0 1187 92 2023 287 2610
77 231 181 446 264 542 96 113 297 197 544 227 106 13 329 6 435 -14z"/>
</g>
</svg>
